<?xml version="1.0" encoding="UTF-8"?><!DOCTYPE svg PUBLIC "-//W3C//DTD SVG 1.1//EN" "http://www.w3.org/Graphics/SVG/1.1/DTD/svg11.dtd"><svg xmlns="http://www.w3.org/2000/svg"><symbol id="check-circle" viewBox="0 0 1792 1792"><path d="M1412 734q0-28-18-46l-91-90q-19-19-45-19t-45 19l-408 407-226-226q-19-19-45-19t-45 19l-91 90q-18 18-18 46 0 27 18 45l362 362q19 19 45 19 27 0 46-19l543-543q18-18 18-45zm252 162q0 209-103 385.5T1281.5 1561 896 1664t-385.5-103T231 1281.5 128 896t103-385.5T510.5 231 896 128t385.5 103T1561 510.5 1664 896z"/></symbol><symbol id="check" viewBox="0 0 1792 1792"><path d="M1671 566q0 40-28 68l-724 724-136 136q-28 28-68 28t-68-28l-136-136-362-362q-28-28-28-68t28-68l136-136q28-28 68-28t68 28l294 295 656-657q28-28 68-28t68 28l136 136q28 28 28 68z"/></symbol><symbol id="circle" viewBox="0 0 1792 1792"><path d="M896 256q-130 0-248.5 51t-204 136.5-136.5 204T256 896t51 248.5 136.5 204 204 136.5 248.5 51 248.5-51 204-136.5 136.5-204 51-248.5-51-248.5-136.5-204-204-136.5T896 256zm768 640q0 209-103 385.5T1281.5 1561 896 1664t-385.5-103T231 1281.5 128 896t103-385.5T510.5 231 896 128t385.5 103T1561 510.5 1664 896z"/></symbol><symbol id="close" viewBox="0 0 1792 1792"><path d="M1490 1322q0 40-28 68l-136 136q-28 28-68 28t-68-28l-294-294-294 294q-28 28-68 28t-68-28l-136-136q-28-28-28-68t28-68l294-294-294-294q-28-28-28-68t28-68l136-136q28-28 68-28t68 28l294 294 294-294q28-28 68-28t68 28l136 136q28 28 28 68t-28 68l-294 294 294 294q28 28 28 68z"/></symbol><symbol id="cog" viewBox="0 0 27 32"><path d="M18.286 16q0-1.893-1.339-3.232t-3.232-1.339-3.232 1.339T9.144 16t1.339 3.232 3.232 1.339 3.232-1.339T18.286 16zm9.143-1.946v3.964q0 .214-.143.411t-.357.232l-3.304.5q-.339.964-.696 1.625.625.893 1.911 2.464.179.214.179.446t-.161.411q-.482.661-1.768 1.929t-1.679 1.268q-.214 0-.464-.161l-2.464-1.929q-.786.411-1.625.679-.286 2.429-.518 3.321-.125.5-.643.5h-3.964q-.25 0-.438-.152t-.205-.384l-.5-3.286q-.875-.286-1.607-.661l-2.518 1.911q-.179.161-.446.161-.25 0-.446-.196-2.25-2.036-2.946-3-.125-.179-.125-.411 0-.214.143-.411.268-.375.911-1.188t.964-1.259q-.482-.893-.732-1.768L.52 18.588q-.232-.036-.375-.223t-.143-.42v-3.964q0-.214.143-.411t.339-.232l3.321-.5q.25-.821.696-1.643-.714-1.018-1.911-2.464-.179-.214-.179-.429 0-.179.161-.411.464-.643 1.759-1.92t1.688-1.277q.232 0 .464.179l2.464 1.911q.786-.411 1.625-.679.286-2.429.518-3.321.125-.5.643-.5h3.964q.25 0 .438.152t.205.384l.5 3.286q.875.286 1.607.661l2.536-1.911q.161-.161.429-.161.232 0 .446.179 2.304 2.125 2.946 3.036.125.143.125.393 0 .214-.143.411-.268.375-.911 1.188t-.964 1.259q.464.893.732 1.75l3.268.5q.232.036.375.223t.143.42z"/></symbol><symbol id="cube" viewBox="0 0 1792 1792"><path d="M896 1629l640-349V644L896 877v752zm-64-865l698-254-698-254-698 254zm832-252v768q0 35-18 65t-49 47l-704 384q-28 16-61 16t-61-16L67 1392q-31-17-49-47t-18-65V512q0-40 23-73t61-47l704-256q22-8 44-8t44 8l704 256q38 14 61 47t23 73z"/></symbol><symbol id="cubes" viewBox="0 0 1792 1792"><path d="M384 1632l384-192v-314l-384 164v342zm-64-454l404-173-404-173-404 173zm1088 454l384-192v-314l-384 164v342zm-64-454l404-173-404-173-404 173zM896 885l384-165V454L896 618v267zm-64-379l441-189-441-189-441 189zm1088 518v416q0 36-19 67t-52 47l-448 224q-25 14-57 14t-57-14l-448-224q-5-2-7-4-2 2-7 4l-448 224q-25 14-57 14t-57-14l-448-224q-33-16-52-47t-19-67v-416q0-38 21.5-70t56.5-48l434-186V320q0-38 21.5-70t56.5-48L782 10q23-10 50-10t50 10l448 192q35 16 56.5 48t21.5 70v400l434 186q36 16 57 48t21 70z"/></symbol><symbol id="envelope" viewBox="0 0 1792 1792"><path d="M1664 1504V736q-32 36-69 66-268 206-426 338-51 43-83 67t-86.5 48.5T897 1280h-2q-48 0-102.5-24.5T706 1207t-83-67q-158-132-426-338-37-30-69-66v768q0 13 9.5 22.5t22.5 9.5h1472q13 0 22.5-9.5t9.5-22.5zm0-1051v-24.5l-.5-13-3-12.5-5.5-9-9-7.5-14-2.5H160q-13 0-22.5 9.5T128 416q0 168 147 284 193 152 401 317 6 5 35 29.5t46 37.5 44.5 31.5T852 1143t43 9h2q20 0 43-9t50.5-27.5 44.5-31.5 46-37.5 35-29.5q208-165 401-317 54-43 100.5-115.5T1664 453zm128-37v1088q0 66-47 113t-113 47H160q-66 0-113-47T0 1504V416q0-66 47-113t113-47h1472q66 0 113 47t47 113z"/></symbol><symbol id="globe" viewBox="0 0 1792 1792"><path d="M896 128q209 0 385.5 103T1561 510.5 1664 896t-103 385.5-279.5 279.5T896 1664t-385.5-103T231 1281.5 128 896t103-385.5T510.5 231 896 128zm274 521q-2 1-9.5 9.5T1147 668q2 0 4.5-5t5-11 3.5-7q6-7 22-15 14-6 52-12 34-8 51 11-2-2 9.5-13t14.5-12q3-2 15-4.5t15-7.5l2-22q-12 1-17.5-7t-6.5-21q0 2-6 8 0-7-4.5-8t-11.5 1-9 1q-10-3-15-7.5t-8-16.5-4-15q-2-5-9.5-10.5T1240 484q-1-2-2.5-5.5t-3-6.5-4-5.5-5.5-2.5-7 5-7.5 10-4.5 5q-3-2-6-1.5t-4.5 1-4.5 3-5 3.5q-3 2-8.5 3t-8.5 2q15-5-1-11-10-4-16-3 9-4 7.5-12t-8.5-14h5q-1-4-8.5-8.5T1130 438t-13-6q-8-5-34-9.5t-33-.5q-5 6-4.5 10.5t4 14 3.5 12.5q1 6-5.5 13t-6.5 12q0 7 14 15.5t10 21.5q-3 8-16 16t-16 12q-5 8-1.5 18.5T1042 584q2 2 1.5 4t-3.5 4.5-5.5 4-6.5 3.5l-3 2q-11 5-20.5-6T991 570q-7-25-16-30-23-8-29 1-5-13-41-26-25-9-58-4 6-1 0-15-7-15-19-12 3-6 4-17.5t1-13.5q3-13 12-23 1-1 7-8.5t9.5-13.5.5-6q35 4 50-11 5-5 11.5-17t10.5-17q9-6 14-5.5t14.5 5.5 14.5 5q14 1 15.5-11t-7.5-20q12 1 3-17-5-7-8-9-12-4-27 5-8 4 2 8-1-1-9.5 10.5T929 346t-16-5q-1-1-5.5-13.5T898 314q-8 0-16 15 3-8-11-15t-24-8q19-12-8-27-7-4-20.5-5t-19.5 4q-5 7-5.5 11.5t5 8T809 303t11.5 4 8.5 3q14 10 8 14-2 1-8.5 3.5T817 332t-6 4q-3 4 0 14t-2 14q-5-5-9-17.5t-7-16.5q7 9-25 6l-10-1q-4 0-16 2t-20.5 1-13.5-8q-4-8 0-20 1-4 4-2-4-3-11-9.5t-10-8.5q-46 15-94 41 6 1 12-1 5-2 13-6.5t10-5.5q34-14 42-7l5-5q14 16 20 25-7-4-30-1-20 6-22 12 7 12 5 18-4-3-11.5-10T626 339t-15-5q-16 0-22 1-146 80-235 222 7 7 12 8 4 1 5 9t2.5 11 11.5-3q9 8 3 19 1-1 44 27 19 17 21 21 3 11-10 18-1-2-9-9t-9-4q-3 5 .5 18.5T436 685q-7 0-9.5 16t-2.5 35.5-1 23.5l2 1q-3 12 5.5 34.5T452 815q-13 3 20 43 6 8 8 9 3 2 12 7.5t15 10 10 10.5q4 5 10 22.5t14 23.5q-2 6 9.5 20t10.5 23q-1 0-2.5 1t-2.5 1q3 7 15.5 14t15.5 13q1 3 2 10t3 11 8 2q2-20-24-62-15-25-17-29-3-5-5.5-15.5T549 915q2 0 6 1.5t8.5 3.5 7.5 4 2 3q-3 7 2 17.5t12 18.5 17 19 12 13q6 6 14 19.5t0 13.5q9 0 20 10t17 20q5 8 8 26t5 24q2 7 8.5 13.5t12.5 9.5l16 8 13 7q5 2 18.5 10.5T770 1168q10 4 16 4t14.5-2.5 13.5-3.5q15-2 29 15t21 21q36 19 55 11-2 1 .5 7.5t8 15.5 9 14.5 5.5 8.5q5 6 18 15t18 15q6-4 7-9-3 8 7 20t18 10q14-3 14-32-31 15-49-18 0-1-2.5-5.5t-4-8.5-2.5-8.5 0-7.5 5-3q9 0 10-3.5t-2-12.5-4-13q-1-8-11-20t-12-15q-5 9-16 8t-16-9q0 1-1.5 5.5t-1.5 6.5q-13 0-15-1 1-3 2.5-17.5t3.5-22.5q1-4 5.5-12t7.5-14.5 4-12.5-4.5-9.5-17.5-2.5q-19 1-26 20-1 3-3 10.5t-5 11.5-9 7q-7 3-24 2t-24-5q-13-8-22.5-29t-9.5-37q0-10 2.5-26.5t3-25T780 986q3-2 9-9.5t10-10.5q2-1 4.5-1.5t4.5 0 4-1.5 3-6q-1-1-4-3-3-3-4-3 7 3 28.5-1.5T863 951q15 11 22-2 0-1-2.5-9.5T882 926q5 27 29 9 3 3 15.5 5t17.5 5q3 2 7 5.5t5.5 4.5 5-.5 8.5-6.5q10 14 12 24 11 40 19 44 7 3 11 2t4.5-9.5 0-14-1.5-12.5l-1-8v-18l-1-8q-15-3-18.5-12t1.5-18.5 15-18.5q1-1 8-3.5t15.5-6.5 12.5-8q21-19 15-35 7 0 11-9-1 0-5-3t-7.5-5-4.5-2q9-5 2-16 5-3 7.5-11t7.5-10q9 12 21 2 7-8 1-16 5-7 20.5-10.5t18.5-9.5q7 2 8-2t1-12 3-12q4-5 15-9t13-5l17-11q3-4 0-4 18 2 31-11 10-11-6-20 3-6-3-9.5t-15-5.5q3-1 11.5-.5t10.5-1.5q15-10-7-16-17-5-43 12zm-163 877q206-36 351-189-3-3-12.5-4.5t-12.5-3.5q-18-7-24-8 1-7-2.5-13t-8-9-12.5-8-11-7q-2-2-7-6t-7-5.5-7.5-4.5-8.5-2-10 1l-3 1q-3 1-5.5 2.5t-5.5 3-4 3 0 2.5q-21-17-36-22-5-1-11-5.5t-10.5-7-10-1.5-11.5 7q-5 5-6 15t-2 13q-7-5 0-17.5t2-18.5q-3-6-10.5-4.5t-12 4.5-11.5 8.5-9 6.5-8.5 5.5-8.5 7.5q-3 4-6 12t-5 11q-2-4-11.5-6.5t-9.5-5.5q2 10 4 35t5 38q7 31-12 48-27 25-29 40-4 22 12 26 0 7-8 20.5t-7 21.5q0 6 2 16z"/></symbol><symbol id="hdd" viewBox="0 0 1792 1792"><path d="M1168 1216q0 33-23.5 56.5T1088 1296t-56.5-23.5-23.5-56.5 23.5-56.5 56.5-23.5 56.5 23.5 23.5 56.5zm256 0q0 33-23.5 56.5T1344 1296t-56.5-23.5-23.5-56.5 23.5-56.5 56.5-23.5 56.5 23.5 23.5 56.5zm112 160v-320q0-13-9.5-22.5t-22.5-9.5H288q-13 0-22.5 9.5T256 1056v320q0 13 9.5 22.5t22.5 9.5h1216q13 0 22.5-9.5t9.5-22.5zM306 896h1180l-157-482q-4-13-16-21.5t-26-8.5H505q-14 0-26 8.5T463 414zm1358 160v320q0 66-47 113t-113 47H288q-66 0-113-47t-47-113v-320q0-25 16-75l197-606q17-53 63-86t101-33h782q55 0 101 33t63 86l197 606q16 50 16 75z"/></symbol><symbol id="laptop" viewBox="0 0 20 20"><path d="M3.5 14h13c.827 0 1.5-.673 1.5-1.5v-8c0-.827-.673-1.5-1.5-1.5h-13C2.673 3 2 3.673 2 4.5v8c0 .827.673 1.5 1.5 1.5zM3 4.5a.5.5 0 0 1 .5-.5h13a.5.5 0 0 1 .5.5v8a.5.5 0 0 1-.5.5h-13a.5.5 0 0 1-.5-.5v-8zM19.5 15H.5a.5.5 0 0 0-.5.5v1c0 .827.673 1.5 1.5 1.5h17c.827 0 1.5-.673 1.5-1.5v-1a.5.5 0 0 0-.5-.5zm-1 2h-17a.5.5 0 0 1-.5-.5V16h18v.5a.5.5 0 0 1-.5.5z"/></symbol><symbol id="lock" viewBox="0 0 32 32"><path d="M24 14V8c0-4.411-3.589-8-8-8S8 3.589 8 8v6c-1.654 0-3 1.346-3 3v12c0 1.654 1.346 3 3 3h16c1.654 0 3-1.346 3-3V17c0-1.654-1.346-3-3-3zM10 8c0-3.309 2.691-6 6-6s6 2.691 6 6v6H10V8zm15 21c0 .552-.449 1-1 1H8c-.551 0-1-.448-1-1V17c0-.552.449-1 1-1h16c.551 0 1 .448 1 1v12zm-8-6.723V20a1 1 0 1 0-2 0v2.277c-.595.347-1 .984-1 1.723a2 2 0 0 0 4 0c0-.738-.404-1.376-1-1.723z"/></symbol><symbol id="pencil" viewBox="0 0 1792 1792"><path d="M491 1536l91-91-235-235-91 91v107h128v128h107zm523-928q0-22-22-22-10 0-17 7l-542 542q-7 7-7 17 0 22 22 22 10 0 17-7l542-542q7-7 7-17zm-54-192l416 416-832 832H128v-416zm683 96q0 53-37 90l-166 166-416-416 166-165q36-38 90-38 53 0 91 38l235 234q37 39 37 91z"/></symbol><symbol id="plus-circle" viewBox="0 0 1792 1792"><path d="M1344 960V832q0-26-19-45t-45-19h-256V512q0-26-19-45t-45-19H832q-26 0-45 19t-19 45v256H512q-26 0-45 19t-19 45v128q0 26 19 45t45 19h256v256q0 26 19 45t45 19h128q26 0 45-19t19-45v-256h256q26 0 45-19t19-45zm320-64q0 209-103 385.5T1281.5 1561 896 1664t-385.5-103T231 1281.5 128 896t103-385.5T510.5 231 896 128t385.5 103T1561 510.5 1664 896z"/></symbol><symbol id="plus" viewBox="0 0 1792 1792"><path d="M1600 736v192q0 40-28 68t-68 28h-416v416q0 40-28 68t-68 28H800q-40 0-68-28t-28-68v-416H288q-40 0-68-28t-28-68V736q0-40 28-68t68-28h416V224q0-40 28-68t68-28h192q40 0 68 28t28 68v416h416q40 0 68 28t28 68z"/></symbol><symbol id="question-circle" viewBox="0 0 1792 1792"><path d="M1024 1376v-192q0-14-9-23t-23-9H800q-14 0-23 9t-9 23v192q0 14 9 23t23 9h192q14 0 23-9t9-23zm256-672q0-88-55.5-163T1086 425t-170-41q-243 0-371 213-15 24 8 42l132 100q7 6 19 6 16 0 25-12 53-68 86-92 34-24 86-24 48 0 85.5 26t37.5 59q0 38-20 61t-68 45q-63 28-115.5 86.5T768 1020v36q0 14 9 23t23 9h192q14 0 23-9t9-23q0-19 21.5-49.5T1100 957q32-18 49-28.5t46-35 44.5-48 28-60.5 12.5-81zm384 192q0 209-103 385.5T1281.5 1561 896 1664t-385.5-103T231 1281.5 128 896t103-385.5T510.5 231 896 128t385.5 103T1561 510.5 1664 896z"/></symbol><symbol id="question" viewBox="0 0 1792 1792"><path d="M1088 1256v240q0 16-12 28t-28 12H808q-16 0-28-12t-12-28v-240q0-16 12-28t28-12h240q16 0 28 12t12 28zm316-600q0 54-15.5 101t-35 76.5-55 59.5-57.5 43.5-61 35.5q-41 23-68.5 65t-27.5 67q0 17-12 32.5t-28 15.5H804q-15 0-25.5-18.5T768 1096v-45q0-83 65-156.5T976 786q59-27 84-56t25-76q0-42-46.5-74T931 548q-65 0-108 29-35 25-107 115-13 16-31 16-12 0-25-8L496 575q-13-10-15.5-25t5.5-28q160-266 464-266 80 0 161 31t146 83 106 127.5 41 158.5z"/></symbol><symbol id="server" viewBox="0 0 1792 1792"><path d="M128 1408h1024v-128H128v128zm0-512h1024V768H128v128zm1568 448q0-40-28-68t-68-28-68 28-28 68 28 68 68 28 68-28 28-68zM128 384h1024V256H128v128zm1568 448q0-40-28-68t-68-28-68 28-28 68 28 68 68 28 68-28 28-68zm0-512q0-40-28-68t-68-28-68 28-28 68 28 68 68 28 68-28 28-68zm96 832v384H0v-384h1792zm0-512v384H0V640h1792zm0-512v384H0V128h1792z"/></symbol><symbol id="warning" viewBox="0 0 1792 1792"><path d="M1024 1375v-190q0-14-9.5-23.5T992 1152H800q-13 0-22.5 9.5T768 1185v190q0 14 9.5 23.5t22.5 9.5h192q13 0 22.5-9.5t9.5-23.5zm-2-374l18-459q0-12-10-19-13-11-24-11H786q-11 0-24 11-10 7-10 21l17 457q0 10 10 16.5t24 6.5h185q14 0 23.5-6.5t10.5-16.5zm-14-934l768 1408q35 63-2 126-17 29-46.5 46t-63.5 17H128q-34 0-63.5-17T18 1601q-37-63-2-126L784 67q17-31 47-49t65-18 65 18 47 49z"/></symbol><symbol id="world" viewBox="0 0 512 512"><path d="M256 11C120.7 11 11 120.7 11 256s109.7 245 245 245 245-109.7 245-245S391.3 11 256 11zm10 467.9c-.5 0-1.1 0-1.6.1v-95.3h77.9c-17.5 51.9-45.1 88.2-76.3 95.2zm-98.4-95.2h76v95.1h-.2c-31-7.3-58.4-43.5-75.8-95.1zM33.1 266.4h94.3c.7 34.7 5 67.3 12.2 96.5H60.1c-15.8-28.9-25.4-61.7-27-96.5zm309.2-138.1h-77.9V33c.5 0 1.1 0 1.6.1 31.2 7 58.8 43.3 76.3 95.2zm6.2 20.8c7.7 29.1 12.4 61.9 13.2 96.5h-97.4v-96.5h84.2zM243.4 33.2h.2v95.1h-76c17.4-51.6 44.8-87.8 75.8-95.1zm.2 115.9v96.5h-95.4c.8-34.6 5.5-67.5 13.2-96.5h82.2zm-116.2 96.5H33.1c1.6-34.9 11.2-67.6 27-96.5h79.5c-7.2 29.2-11.5 61.8-12.2 96.5zm20.8 20.8h95.4v96.5h-82.2c-7.7-29.1-12.4-61.9-13.2-96.5zm116.2 96.5v-96.5h97.4c-.8 34.6-5.5 67.5-13.2 96.5h-84.2zm118.1-96.5h96.4c-1.6 34.9-11.2 67.6-27 96.5h-81.6c7.2-29.2 11.5-61.8 12.2-96.5zm0-20.8c-.7-34.7-5-67.3-12.2-96.5h81.6c15.8 28.9 25.4 61.7 27 96.5h-96.4zM439 128.3h-74.5C353.2 91.9 337 62 317.6 41.5c49.8 14.3 92.5 45.4 121.4 86.8zm-247.5-86c-19 20.5-34.9 50.1-46.1 86H73c28.4-40.6 70-71.3 118.5-86zM73 383.7h72.4c11.2 35.9 27.1 65.5 46.1 86-48.5-14.7-90.1-45.4-118.5-86zm244.6 86.8c19.4-20.5 35.6-50.5 46.9-86.9H439c-28.9 41.5-71.6 72.7-121.4 86.9z"/></symbol></svg>